<svg xmlns="http://www.w3.org/2000/svg" xmlns:xlink="http://www.w3.org/1999/xlink" width="130" zoomAndPan="magnify" viewBox="0 0 97.5 44.999999" height="60" preserveAspectRatio="xMidYMid meet" version="1.0"><defs><g/></defs><g fill="#ffffff" fill-opacity="1"><g transform="translate(3.300436, 20.261478)"><g><path d="M 5.453125 0 C 4.617188 0 3.878906 -0.179688 3.234375 -0.546875 C 2.585938 -0.921875 2.078125 -1.429688 1.703125 -2.078125 C 1.335938 -2.722656 1.15625 -3.460938 1.15625 -4.296875 L 1.15625 -9.71875 C 1.15625 -10.550781 1.335938 -11.289062 1.703125 -11.9375 C 2.078125 -12.582031 2.585938 -13.085938 3.234375 -13.453125 C 3.878906 -13.828125 4.617188 -14.015625 5.453125 -14.015625 L 12.578125 -14.015625 C 12.910156 -14.015625 13.1875 -13.898438 13.40625 -13.671875 C 13.632812 -13.453125 13.75 -13.175781 13.75 -12.84375 L 13.75 -12 C 13.75 -11.664062 13.632812 -11.390625 13.40625 -11.171875 C 13.175781 -10.953125 12.898438 -10.84375 12.578125 -10.84375 L 6.125 -10.84375 C 5.8125 -10.84375 5.539062 -10.726562 5.3125 -10.5 C 5.09375 -10.28125 4.984375 -10.007812 4.984375 -9.6875 L 4.984375 -4.328125 C 4.984375 -3.992188 5.09375 -3.71875 5.3125 -3.5 C 5.539062 -3.28125 5.8125 -3.171875 6.125 -3.171875 L 12.578125 -3.171875 C 12.910156 -3.171875 13.1875 -3.054688 13.40625 -2.828125 C 13.632812 -2.609375 13.75 -2.332031 13.75 -2 L 13.75 -1.171875 C 13.75 -0.847656 13.632812 -0.570312 13.40625 -0.34375 C 13.1875 -0.113281 12.910156 0 12.578125 0 Z M 5.453125 0 "/></g></g></g><g fill="#ffffff" fill-opacity="1"><g transform="translate(17.642329, 20.261478)"><g><path d="M 2.328125 0 C 2.003906 0 1.726562 -0.113281 1.5 -0.34375 C 1.269531 -0.570312 1.15625 -0.847656 1.15625 -1.171875 L 1.15625 -12.84375 C 1.15625 -13.175781 1.269531 -13.453125 1.5 -13.671875 C 1.726562 -13.898438 2.003906 -14.015625 2.328125 -14.015625 L 10.171875 -14.015625 C 10.859375 -14.015625 11.472656 -13.859375 12.015625 -13.546875 C 12.554688 -13.234375 12.976562 -12.804688 13.28125 -12.265625 C 13.59375 -11.734375 13.75 -11.125 13.75 -10.4375 L 13.75 -9.375 C 13.75 -9.019531 13.632812 -8.726562 13.40625 -8.5 C 13.175781 -8.269531 12.890625 -8.15625 12.546875 -8.15625 L 12.5 -8.15625 C 12.1875 -8.15625 11.921875 -8.046875 11.703125 -7.828125 C 11.484375 -7.609375 11.375 -7.332031 11.375 -7 C 11.375 -6.675781 11.484375 -6.398438 11.703125 -6.171875 C 11.921875 -5.953125 12.1875 -5.84375 12.5 -5.84375 L 12.65625 -5.84375 C 12.976562 -5.84375 13.238281 -5.742188 13.4375 -5.546875 C 13.644531 -5.347656 13.75 -5.09375 13.75 -4.78125 L 13.75 -1.171875 C 13.75 -0.847656 13.632812 -0.570312 13.40625 -0.34375 C 13.1875 -0.113281 12.910156 0 12.578125 0 L 11.09375 0 C 10.757812 0 10.476562 -0.113281 10.25 -0.34375 C 10.019531 -0.570312 9.90625 -0.847656 9.90625 -1.171875 L 9.90625 -4.34375 C 9.90625 -4.65625 9.796875 -4.921875 9.578125 -5.140625 C 9.359375 -5.367188 9.085938 -5.484375 8.765625 -5.484375 L 6.125 -5.484375 C 5.8125 -5.484375 5.539062 -5.367188 5.3125 -5.140625 C 5.09375 -4.921875 4.984375 -4.65625 4.984375 -4.34375 L 4.984375 -1.171875 C 4.984375 -0.847656 4.875 -0.570312 4.65625 -0.34375 C 4.4375 -0.113281 4.15625 0 3.8125 0 Z M 6.125 -8.546875 L 8.765625 -8.546875 C 9.085938 -8.546875 9.359375 -8.65625 9.578125 -8.875 C 9.796875 -9.101562 9.90625 -9.375 9.90625 -9.6875 C 9.90625 -10.007812 9.796875 -10.28125 9.578125 -10.5 C 9.359375 -10.726562 9.085938 -10.84375 8.765625 -10.84375 L 6.125 -10.84375 C 5.8125 -10.84375 5.539062 -10.726562 5.3125 -10.5 C 5.09375 -10.28125 4.984375 -10.007812 4.984375 -9.6875 C 4.984375 -9.375 5.09375 -9.101562 5.3125 -8.875 C 5.539062 -8.65625 5.8125 -8.546875 6.125 -8.546875 Z M 6.125 -8.546875 "/></g></g></g><g fill="#ffffff" fill-opacity="1"><g transform="translate(31.984222, 20.261478)"><g><path d="M 5.40625 0 C 5.082031 0 4.804688 -0.113281 4.578125 -0.34375 C 4.347656 -0.570312 4.234375 -0.847656 4.234375 -1.171875 L 4.234375 -5.171875 C 4.234375 -5.484375 4.125 -5.753906 3.90625 -5.984375 C 3.6875 -6.210938 3.410156 -6.328125 3.078125 -6.328125 L 2.328125 -6.328125 C 2.003906 -6.328125 1.726562 -6.4375 1.5 -6.65625 C 1.269531 -6.882812 1.15625 -7.171875 1.15625 -7.515625 L 1.15625 -12.875 C 1.15625 -13.195312 1.269531 -13.46875 1.5 -13.6875 C 1.726562 -13.90625 2.003906 -14.015625 2.328125 -14.015625 L 3.8125 -14.015625 C 4.144531 -14.015625 4.421875 -13.898438 4.640625 -13.671875 C 4.867188 -13.441406 4.984375 -13.160156 4.984375 -12.828125 L 4.984375 -9.71875 C 4.984375 -9.394531 5.097656 -9.117188 5.328125 -8.890625 C 5.554688 -8.660156 5.828125 -8.546875 6.140625 -8.546875 C 6.472656 -8.546875 6.753906 -8.660156 6.984375 -8.890625 C 7.210938 -9.117188 7.328125 -9.394531 7.328125 -9.71875 L 7.328125 -12.828125 C 7.328125 -13.160156 7.4375 -13.441406 7.65625 -13.671875 C 7.882812 -13.898438 8.164062 -14.015625 8.5 -14.015625 L 9.984375 -14.015625 C 10.296875 -14.015625 10.566406 -13.90625 10.796875 -13.6875 C 11.035156 -13.46875 11.15625 -13.195312 11.15625 -12.875 L 11.15625 -7.515625 C 11.15625 -7.171875 11.039062 -6.882812 10.8125 -6.65625 C 10.59375 -6.4375 10.316406 -6.328125 9.984375 -6.328125 L 9.21875 -6.328125 C 8.894531 -6.328125 8.625 -6.210938 8.40625 -5.984375 C 8.1875 -5.765625 8.078125 -5.492188 8.078125 -5.171875 L 8.078125 -1.171875 C 8.078125 -0.847656 7.960938 -0.570312 7.734375 -0.34375 C 7.515625 -0.113281 7.238281 0 6.90625 0 Z M 5.40625 0 "/></g></g></g><g fill="#ffffff" fill-opacity="1"><g transform="translate(43.734376, 20.261478)"><g><path d="M 2.328125 0 C 2.003906 0 1.726562 -0.113281 1.5 -0.34375 C 1.269531 -0.570312 1.15625 -0.847656 1.15625 -1.171875 L 1.15625 -12.84375 C 1.15625 -13.175781 1.269531 -13.453125 1.5 -13.671875 C 1.726562 -13.898438 2.003906 -14.015625 2.328125 -14.015625 L 9.640625 -14.015625 C 10.429688 -14.015625 11.132812 -13.832031 11.75 -13.46875 C 12.375 -13.113281 12.863281 -12.628906 13.21875 -12.015625 C 13.570312 -11.398438 13.75 -10.691406 13.75 -9.890625 L 13.75 -9.59375 C 13.75 -8.800781 13.570312 -8.09375 13.21875 -7.46875 C 12.863281 -6.851562 12.375 -6.367188 11.75 -6.015625 C 11.132812 -5.660156 10.429688 -5.484375 9.640625 -5.484375 L 6.140625 -5.484375 C 5.828125 -5.484375 5.554688 -5.367188 5.328125 -5.140625 C 5.097656 -4.910156 4.984375 -4.640625 4.984375 -4.328125 L 4.984375 -1.171875 C 4.984375 -0.847656 4.875 -0.570312 4.65625 -0.34375 C 4.4375 -0.113281 4.15625 0 3.8125 0 Z M 6.125 -8.546875 L 8.765625 -8.546875 C 9.085938 -8.546875 9.359375 -8.65625 9.578125 -8.875 C 9.796875 -9.101562 9.90625 -9.375 9.90625 -9.6875 C 9.90625 -10.007812 9.796875 -10.28125 9.578125 -10.5 C 9.359375 -10.726562 9.085938 -10.84375 8.765625 -10.84375 L 6.125 -10.84375 C 5.8125 -10.84375 5.539062 -10.726562 5.3125 -10.5 C 5.09375 -10.28125 4.984375 -10.007812 4.984375 -9.6875 C 4.984375 -9.375 5.09375 -9.101562 5.3125 -8.875 C 5.539062 -8.65625 5.8125 -8.546875 6.125 -8.546875 Z M 6.125 -8.546875 "/></g></g></g><g fill="#ffffff" fill-opacity="1"><g transform="translate(58.076269, 20.261478)"><g><path d="M 6.171875 0 C 5.410156 0 5.03125 -0.382812 5.03125 -1.15625 L 5.03125 -9.703125 C 5.03125 -10.015625 4.914062 -10.28125 4.6875 -10.5 C 4.457031 -10.726562 4.179688 -10.84375 3.859375 -10.84375 L 2.3125 -10.84375 C 1.539062 -10.84375 1.15625 -11.226562 1.15625 -12 L 1.15625 -12.875 C 1.15625 -13.644531 1.539062 -14.03125 2.3125 -14.03125 L 11.578125 -14.015625 C 12.347656 -14.015625 12.734375 -13.628906 12.734375 -12.859375 L 12.734375 -12 C 12.734375 -11.226562 12.347656 -10.84375 11.578125 -10.84375 L 10.015625 -10.84375 C 9.703125 -10.84375 9.429688 -10.726562 9.203125 -10.5 C 8.972656 -10.28125 8.859375 -10.015625 8.859375 -9.703125 L 8.859375 -1.140625 C 8.859375 -0.378906 8.472656 0 7.703125 0 Z M 6.171875 0 "/></g></g></g><g fill="#ffffff" fill-opacity="1"><g transform="translate(71.402478, 20.261478)"><g><path d="M 2.328125 0 C 2.003906 0 1.726562 -0.113281 1.5 -0.34375 C 1.269531 -0.570312 1.15625 -0.847656 1.15625 -1.171875 L 1.15625 -12.84375 C 1.15625 -13.175781 1.269531 -13.453125 1.5 -13.671875 C 1.726562 -13.898438 2.003906 -14.015625 2.328125 -14.015625 L 3.8125 -14.015625 C 4.15625 -14.015625 4.4375 -13.898438 4.65625 -13.671875 C 4.875 -13.453125 4.984375 -13.175781 4.984375 -12.84375 L 4.984375 -1.171875 C 4.984375 -0.847656 4.875 -0.570312 4.65625 -0.34375 C 4.4375 -0.113281 4.15625 0 3.8125 0 Z M 2.328125 0 "/></g></g></g><g fill="#ffffff" fill-opacity="1"><g transform="translate(76.988491, 20.261478)"><g><path d="M 5.453125 0 C 4.617188 0 3.878906 -0.179688 3.234375 -0.546875 C 2.585938 -0.921875 2.078125 -1.429688 1.703125 -2.078125 C 1.335938 -2.722656 1.15625 -3.460938 1.15625 -4.296875 L 1.15625 -9.71875 C 1.15625 -10.550781 1.335938 -11.289062 1.703125 -11.9375 C 2.078125 -12.582031 2.585938 -13.085938 3.234375 -13.453125 C 3.878906 -13.828125 4.617188 -14.015625 5.453125 -14.015625 L 12.578125 -14.015625 C 12.910156 -14.015625 13.1875 -13.898438 13.40625 -13.671875 C 13.632812 -13.453125 13.75 -13.175781 13.75 -12.84375 L 13.75 -12 C 13.75 -11.664062 13.632812 -11.390625 13.40625 -11.171875 C 13.175781 -10.953125 12.898438 -10.84375 12.578125 -10.84375 L 6.125 -10.84375 C 5.8125 -10.84375 5.539062 -10.726562 5.3125 -10.5 C 5.09375 -10.28125 4.984375 -10.007812 4.984375 -9.6875 L 4.984375 -4.328125 C 4.984375 -3.992188 5.09375 -3.71875 5.3125 -3.5 C 5.539062 -3.28125 5.8125 -3.171875 6.125 -3.171875 L 12.578125 -3.171875 C 12.910156 -3.171875 13.1875 -3.054688 13.40625 -2.828125 C 13.632812 -2.609375 13.75 -2.332031 13.75 -2 L 13.75 -1.171875 C 13.75 -0.847656 13.632812 -0.570312 13.40625 -0.34375 C 13.1875 -0.113281 12.910156 0 12.578125 0 Z M 5.453125 0 "/></g></g></g><g fill="#ffffff" fill-opacity="1"><g transform="translate(91.337243, 20.261478)"><g/></g></g><g fill="#f7e135" fill-opacity="1"><g transform="translate(3.300436, 37.423467)"><g><path d="M 2.328125 0 C 2.003906 0 1.726562 -0.113281 1.5 -0.34375 C 1.269531 -0.570312 1.15625 -0.847656 1.15625 -1.171875 L 1.15625 -12.84375 C 1.15625 -13.175781 1.269531 -13.453125 1.5 -13.671875 C 1.726562 -13.898438 2.003906 -14.015625 2.328125 -14.015625 L 3.8125 -14.015625 C 4.15625 -14.015625 4.4375 -13.898438 4.65625 -13.671875 C 4.875 -13.453125 4.984375 -13.175781 4.984375 -12.84375 L 4.984375 -9.703125 C 4.984375 -9.378906 5.09375 -9.101562 5.3125 -8.875 C 5.539062 -8.65625 5.8125 -8.546875 6.125 -8.546875 C 6.457031 -8.546875 6.734375 -8.65625 6.953125 -8.875 C 7.171875 -9.101562 7.28125 -9.378906 7.28125 -9.703125 L 7.28125 -12.84375 C 7.28125 -13.175781 7.394531 -13.453125 7.625 -13.671875 C 7.851562 -13.898438 8.128906 -14.015625 8.453125 -14.015625 L 9.953125 -14.015625 C 10.285156 -14.015625 10.5625 -13.898438 10.78125 -13.671875 C 11.007812 -13.453125 11.125 -13.175781 11.125 -12.84375 L 11.125 -1.171875 C 11.125 -0.847656 11.007812 -0.570312 10.78125 -0.34375 C 10.5625 -0.113281 10.285156 0 9.953125 0 L 8.453125 0 C 8.128906 0 7.851562 -0.113281 7.625 -0.34375 C 7.394531 -0.570312 7.28125 -0.847656 7.28125 -1.171875 L 7.28125 -4.3125 C 7.28125 -4.632812 7.171875 -4.910156 6.953125 -5.140625 C 6.734375 -5.367188 6.457031 -5.484375 6.125 -5.484375 C 5.8125 -5.484375 5.539062 -5.367188 5.3125 -5.140625 C 5.09375 -4.921875 4.984375 -4.648438 4.984375 -4.328125 L 4.984375 -1.171875 C 4.984375 -0.847656 4.875 -0.570312 4.65625 -0.34375 C 4.4375 -0.113281 4.15625 0 3.8125 0 Z M 2.328125 0 "/></g></g></g><g fill="#f7e135" fill-opacity="1"><g transform="translate(15.015567, 37.423467)"><g><path d="M 5.453125 0 C 4.617188 0 3.878906 -0.179688 3.234375 -0.546875 C 2.585938 -0.921875 2.078125 -1.429688 1.703125 -2.078125 C 1.335938 -2.722656 1.15625 -3.460938 1.15625 -4.296875 L 1.15625 -12.84375 C 1.15625 -13.175781 1.269531 -13.453125 1.5 -13.671875 C 1.726562 -13.898438 2.003906 -14.015625 2.328125 -14.015625 L 3.8125 -14.015625 C 4.15625 -14.015625 4.4375 -13.898438 4.65625 -13.671875 C 4.875 -13.453125 4.984375 -13.175781 4.984375 -12.84375 L 4.984375 -4.328125 C 4.984375 -3.992188 5.09375 -3.71875 5.3125 -3.5 C 5.539062 -3.28125 5.8125 -3.171875 6.125 -3.171875 C 6.457031 -3.171875 6.734375 -3.28125 6.953125 -3.5 C 7.171875 -3.71875 7.28125 -3.992188 7.28125 -4.328125 L 7.28125 -12.84375 C 7.28125 -13.175781 7.394531 -13.453125 7.625 -13.671875 C 7.851562 -13.898438 8.128906 -14.015625 8.453125 -14.015625 L 9.953125 -14.015625 C 10.285156 -14.015625 10.5625 -13.898438 10.78125 -13.671875 C 11.007812 -13.453125 11.125 -13.175781 11.125 -12.84375 L 11.125 -4.296875 C 11.125 -3.460938 10.9375 -2.722656 10.5625 -2.078125 C 10.195312 -1.429688 9.691406 -0.921875 9.046875 -0.546875 C 8.398438 -0.179688 7.660156 0 6.828125 0 Z M 5.453125 0 "/></g></g></g><g fill="#f7e135" fill-opacity="1"><g transform="translate(26.730698, 37.423467)"><g><path d="M 2.328125 0 C 2.003906 0 1.726562 -0.113281 1.5 -0.34375 C 1.269531 -0.570312 1.15625 -0.847656 1.15625 -1.171875 L 1.15625 -12.84375 C 1.15625 -13.175781 1.269531 -13.453125 1.5 -13.671875 C 1.726562 -13.898438 2.003906 -14.015625 2.328125 -14.015625 L 9.421875 -14.015625 C 9.765625 -14.015625 10.046875 -13.894531 10.265625 -13.65625 C 10.484375 -13.425781 10.59375 -13.148438 10.59375 -12.828125 L 10.59375 -4.328125 C 10.59375 -3.992188 10.703125 -3.71875 10.921875 -3.5 C 11.148438 -3.28125 11.421875 -3.171875 11.734375 -3.171875 C 12.054688 -3.171875 12.328125 -3.28125 12.546875 -3.5 C 12.773438 -3.71875 12.890625 -3.992188 12.890625 -4.328125 L 12.890625 -12.84375 C 12.890625 -13.175781 13.003906 -13.453125 13.234375 -13.671875 C 13.460938 -13.898438 13.738281 -14.015625 14.0625 -14.015625 L 15.546875 -14.015625 C 15.890625 -14.015625 16.171875 -13.898438 16.390625 -13.671875 C 16.617188 -13.453125 16.734375 -13.175781 16.734375 -12.84375 L 16.734375 -1.171875 C 16.734375 -0.847656 16.617188 -0.570312 16.390625 -0.34375 C 16.171875 -0.113281 15.890625 0 15.546875 0 L 8.453125 0 C 8.128906 0 7.851562 -0.113281 7.625 -0.34375 C 7.394531 -0.582031 7.28125 -0.863281 7.28125 -1.1875 L 7.28125 -9.703125 C 7.28125 -10.015625 7.171875 -10.28125 6.953125 -10.5 C 6.734375 -10.726562 6.457031 -10.84375 6.125 -10.84375 C 5.8125 -10.84375 5.539062 -10.726562 5.3125 -10.5 C 5.09375 -10.28125 4.984375 -10.015625 4.984375 -9.703125 L 4.984375 -1.171875 C 4.984375 -0.847656 4.875 -0.570312 4.65625 -0.34375 C 4.4375 -0.113281 4.15625 0 3.8125 0 Z M 2.328125 0 "/></g></g></g><g fill="#f7e135" fill-opacity="1"><g transform="translate(44.049589, 37.423467)"><g><path d="M 6.171875 0 C 5.410156 0 5.03125 -0.382812 5.03125 -1.15625 L 5.03125 -9.703125 C 5.03125 -10.015625 4.914062 -10.28125 4.6875 -10.5 C 4.457031 -10.726562 4.179688 -10.84375 3.859375 -10.84375 L 2.3125 -10.84375 C 1.539062 -10.84375 1.15625 -11.226562 1.15625 -12 L 1.15625 -12.875 C 1.15625 -13.644531 1.539062 -14.03125 2.3125 -14.03125 L 11.578125 -14.015625 C 12.347656 -14.015625 12.734375 -13.628906 12.734375 -12.859375 L 12.734375 -12 C 12.734375 -11.226562 12.347656 -10.84375 11.578125 -10.84375 L 10.015625 -10.84375 C 9.703125 -10.84375 9.429688 -10.726562 9.203125 -10.5 C 8.972656 -10.28125 8.859375 -10.015625 8.859375 -9.703125 L 8.859375 -1.140625 C 8.859375 -0.378906 8.472656 0 7.703125 0 Z M 6.171875 0 "/></g></g></g></svg>