<svg xmlns="http://www.w3.org/2000/svg" xmlns:xlink="http://www.w3.org/1999/xlink" width="200" zoomAndPan="magnify" viewBox="0 0 150 44.999999" height="60" preserveAspectRatio="xMidYMid meet" version="1.0"><defs><g/></defs><g fill="#ffffff" fill-opacity="1"><g transform="translate(3.520411, 20.249999)"><g><path d="M 6.421875 0 C 5.453125 0 4.582031 -0.210938 3.8125 -0.640625 C 3.050781 -1.078125 2.453125 -1.675781 2.015625 -2.4375 C 1.578125 -3.207031 1.359375 -4.082031 1.359375 -5.0625 L 1.359375 -11.46875 C 1.359375 -12.445312 1.578125 -13.316406 2.015625 -14.078125 C 2.453125 -14.847656 3.050781 -15.445312 3.8125 -15.875 C 4.582031 -16.3125 5.453125 -16.53125 6.421875 -16.53125 L 14.84375 -16.53125 C 15.238281 -16.53125 15.566406 -16.398438 15.828125 -16.140625 C 16.097656 -15.878906 16.234375 -15.550781 16.234375 -15.15625 L 16.234375 -14.15625 C 16.234375 -13.769531 16.097656 -13.445312 15.828125 -13.1875 C 15.554688 -12.925781 15.226562 -12.796875 14.84375 -12.796875 L 7.234375 -12.796875 C 6.859375 -12.796875 6.539062 -12.664062 6.28125 -12.40625 C 6.019531 -12.144531 5.890625 -11.820312 5.890625 -11.4375 L 5.890625 -5.109375 C 5.890625 -4.722656 6.019531 -4.394531 6.28125 -4.125 C 6.539062 -3.863281 6.859375 -3.734375 7.234375 -3.734375 L 14.84375 -3.734375 C 15.238281 -3.734375 15.566406 -3.601562 15.828125 -3.34375 C 16.097656 -3.082031 16.234375 -2.753906 16.234375 -2.359375 L 16.234375 -1.390625 C 16.234375 -1.003906 16.097656 -0.675781 15.828125 -0.40625 C 15.566406 -0.132812 15.238281 0 14.84375 0 Z M 6.421875 0 "/></g></g></g><g fill="#ffffff" fill-opacity="1"><g transform="translate(20.45037, 20.249999)"><g><path d="M 2.75 0 C 2.363281 0 2.035156 -0.132812 1.765625 -0.40625 C 1.492188 -0.675781 1.359375 -1.003906 1.359375 -1.390625 L 1.359375 -15.15625 C 1.359375 -15.550781 1.492188 -15.878906 1.765625 -16.140625 C 2.035156 -16.398438 2.363281 -16.53125 2.75 -16.53125 L 12.015625 -16.53125 C 12.828125 -16.53125 13.546875 -16.347656 14.171875 -15.984375 C 14.804688 -15.617188 15.304688 -15.117188 15.671875 -14.484375 C 16.046875 -13.859375 16.234375 -13.140625 16.234375 -12.328125 L 16.234375 -11.0625 C 16.234375 -10.644531 16.097656 -10.300781 15.828125 -10.03125 C 15.554688 -9.769531 15.210938 -9.640625 14.796875 -9.640625 L 14.765625 -9.640625 C 14.390625 -9.640625 14.070312 -9.503906 13.8125 -9.234375 C 13.550781 -8.972656 13.421875 -8.648438 13.421875 -8.265625 C 13.421875 -7.878906 13.550781 -7.554688 13.8125 -7.296875 C 14.070312 -7.035156 14.390625 -6.90625 14.765625 -6.90625 L 14.953125 -6.90625 C 15.316406 -6.90625 15.617188 -6.785156 15.859375 -6.546875 C 16.109375 -6.316406 16.234375 -6.015625 16.234375 -5.640625 L 16.234375 -1.390625 C 16.234375 -1.003906 16.097656 -0.675781 15.828125 -0.40625 C 15.566406 -0.132812 15.238281 0 14.84375 0 L 13.078125 0 C 12.691406 0 12.363281 -0.132812 12.09375 -0.40625 C 11.832031 -0.675781 11.703125 -1.003906 11.703125 -1.390625 L 11.703125 -5.125 C 11.703125 -5.5 11.570312 -5.816406 11.3125 -6.078125 C 11.050781 -6.335938 10.722656 -6.46875 10.328125 -6.46875 L 7.234375 -6.46875 C 6.859375 -6.46875 6.539062 -6.335938 6.28125 -6.078125 C 6.019531 -5.816406 5.890625 -5.5 5.890625 -5.125 L 5.890625 -1.390625 C 5.890625 -1.003906 5.757812 -0.675781 5.5 -0.40625 C 5.238281 -0.132812 4.90625 0 4.5 0 Z M 7.234375 -10.09375 L 10.328125 -10.09375 C 10.722656 -10.09375 11.050781 -10.222656 11.3125 -10.484375 C 11.570312 -10.742188 11.703125 -11.0625 11.703125 -11.4375 C 11.703125 -11.820312 11.570312 -12.144531 11.3125 -12.40625 C 11.050781 -12.664062 10.722656 -12.796875 10.328125 -12.796875 L 7.234375 -12.796875 C 6.859375 -12.796875 6.539062 -12.664062 6.28125 -12.40625 C 6.019531 -12.144531 5.890625 -11.820312 5.890625 -11.4375 C 5.890625 -11.0625 6.019531 -10.742188 6.28125 -10.484375 C 6.539062 -10.222656 6.859375 -10.09375 7.234375 -10.09375 Z M 7.234375 -10.09375 "/></g></g></g><g fill="#ffffff" fill-opacity="1"><g transform="translate(37.380329, 20.249999)"><g><path d="M 6.390625 0 C 6.003906 0 5.675781 -0.132812 5.40625 -0.40625 C 5.132812 -0.675781 5 -1.003906 5 -1.390625 L 5 -6.09375 C 5 -6.46875 4.867188 -6.789062 4.609375 -7.0625 C 4.347656 -7.332031 4.023438 -7.46875 3.640625 -7.46875 L 2.75 -7.46875 C 2.363281 -7.46875 2.035156 -7.597656 1.765625 -7.859375 C 1.492188 -8.128906 1.359375 -8.46875 1.359375 -8.875 L 1.359375 -15.1875 C 1.359375 -15.570312 1.492188 -15.890625 1.765625 -16.140625 C 2.035156 -16.398438 2.363281 -16.53125 2.75 -16.53125 L 4.5 -16.53125 C 4.882812 -16.53125 5.210938 -16.394531 5.484375 -16.125 C 5.753906 -15.863281 5.890625 -15.53125 5.890625 -15.125 L 5.890625 -11.46875 C 5.890625 -11.082031 6.023438 -10.753906 6.296875 -10.484375 C 6.566406 -10.222656 6.882812 -10.09375 7.25 -10.09375 C 7.632812 -10.09375 7.960938 -10.222656 8.234375 -10.484375 C 8.503906 -10.753906 8.640625 -11.082031 8.640625 -11.46875 L 8.640625 -15.125 C 8.640625 -15.53125 8.773438 -15.863281 9.046875 -16.125 C 9.316406 -16.394531 9.644531 -16.53125 10.03125 -16.53125 L 11.78125 -16.53125 C 12.15625 -16.53125 12.476562 -16.398438 12.75 -16.140625 C 13.03125 -15.890625 13.171875 -15.570312 13.171875 -15.1875 L 13.171875 -8.875 C 13.171875 -8.46875 13.035156 -8.128906 12.765625 -7.859375 C 12.503906 -7.597656 12.175781 -7.46875 11.78125 -7.46875 L 10.875 -7.46875 C 10.5 -7.46875 10.179688 -7.332031 9.921875 -7.0625 C 9.660156 -6.800781 9.53125 -6.476562 9.53125 -6.09375 L 9.53125 -1.390625 C 9.53125 -1.003906 9.398438 -0.675781 9.140625 -0.40625 C 8.878906 -0.132812 8.546875 0 8.140625 0 Z M 6.390625 0 "/></g></g></g><g fill="#ffffff" fill-opacity="1"><g transform="translate(51.250836, 20.249999)"><g><path d="M 2.75 0 C 2.363281 0 2.035156 -0.132812 1.765625 -0.40625 C 1.492188 -0.675781 1.359375 -1.003906 1.359375 -1.390625 L 1.359375 -15.15625 C 1.359375 -15.550781 1.492188 -15.878906 1.765625 -16.140625 C 2.035156 -16.398438 2.363281 -16.53125 2.75 -16.53125 L 11.375 -16.53125 C 12.3125 -16.53125 13.144531 -16.320312 13.875 -15.90625 C 14.601562 -15.488281 15.175781 -14.910156 15.59375 -14.171875 C 16.019531 -13.441406 16.234375 -12.609375 16.234375 -11.671875 L 16.234375 -11.328125 C 16.234375 -10.390625 16.019531 -9.554688 15.59375 -8.828125 C 15.175781 -8.097656 14.601562 -7.519531 13.875 -7.09375 C 13.144531 -6.675781 12.3125 -6.46875 11.375 -6.46875 L 7.25 -6.46875 C 6.882812 -6.46875 6.566406 -6.332031 6.296875 -6.0625 C 6.023438 -5.800781 5.890625 -5.484375 5.890625 -5.109375 L 5.890625 -1.390625 C 5.890625 -1.003906 5.757812 -0.675781 5.5 -0.40625 C 5.238281 -0.132812 4.90625 0 4.5 0 Z M 7.234375 -10.09375 L 10.328125 -10.09375 C 10.722656 -10.09375 11.050781 -10.222656 11.3125 -10.484375 C 11.570312 -10.742188 11.703125 -11.0625 11.703125 -11.4375 C 11.703125 -11.820312 11.570312 -12.144531 11.3125 -12.40625 C 11.050781 -12.664062 10.722656 -12.796875 10.328125 -12.796875 L 7.234375 -12.796875 C 6.859375 -12.796875 6.539062 -12.664062 6.28125 -12.40625 C 6.019531 -12.144531 5.890625 -11.820312 5.890625 -11.4375 C 5.890625 -11.0625 6.019531 -10.742188 6.28125 -10.484375 C 6.539062 -10.222656 6.859375 -10.09375 7.234375 -10.09375 Z M 7.234375 -10.09375 "/></g></g></g><g fill="#ffffff" fill-opacity="1"><g transform="translate(68.180795, 20.249999)"><g><path d="M 7.28125 0 C 6.382812 0 5.9375 -0.453125 5.9375 -1.359375 L 5.9375 -11.453125 C 5.9375 -11.828125 5.800781 -12.144531 5.53125 -12.40625 C 5.257812 -12.664062 4.929688 -12.796875 4.546875 -12.796875 L 2.734375 -12.796875 C 1.816406 -12.796875 1.359375 -13.25 1.359375 -14.15625 L 1.359375 -15.1875 C 1.359375 -16.101562 1.816406 -16.5625 2.734375 -16.5625 L 13.671875 -16.53125 C 14.578125 -16.53125 15.03125 -16.078125 15.03125 -15.171875 L 15.03125 -14.15625 C 15.03125 -13.25 14.578125 -12.796875 13.671875 -12.796875 L 11.828125 -12.796875 C 11.453125 -12.796875 11.128906 -12.664062 10.859375 -12.40625 C 10.585938 -12.144531 10.453125 -11.828125 10.453125 -11.453125 L 10.453125 -1.34375 C 10.453125 -0.445312 10 0 9.09375 0 Z M 7.28125 0 "/></g></g></g><g fill="#ffffff" fill-opacity="1"><g transform="translate(83.91178, 20.249999)"><g><path d="M 2.75 0 C 2.363281 0 2.035156 -0.132812 1.765625 -0.40625 C 1.492188 -0.675781 1.359375 -1.003906 1.359375 -1.390625 L 1.359375 -15.15625 C 1.359375 -15.550781 1.492188 -15.878906 1.765625 -16.140625 C 2.035156 -16.398438 2.363281 -16.53125 2.75 -16.53125 L 4.5 -16.53125 C 4.90625 -16.53125 5.238281 -16.398438 5.5 -16.140625 C 5.757812 -15.878906 5.890625 -15.550781 5.890625 -15.15625 L 5.890625 -1.390625 C 5.890625 -1.003906 5.757812 -0.675781 5.5 -0.40625 C 5.238281 -0.132812 4.90625 0 4.5 0 Z M 2.75 0 "/></g></g></g><g fill="#ffffff" fill-opacity="1"><g transform="translate(90.505757, 20.249999)"><g><path d="M 6.421875 0 C 5.453125 0 4.582031 -0.210938 3.8125 -0.640625 C 3.050781 -1.078125 2.453125 -1.675781 2.015625 -2.4375 C 1.578125 -3.207031 1.359375 -4.082031 1.359375 -5.0625 L 1.359375 -11.46875 C 1.359375 -12.445312 1.578125 -13.316406 2.015625 -14.078125 C 2.453125 -14.847656 3.050781 -15.445312 3.8125 -15.875 C 4.582031 -16.3125 5.453125 -16.53125 6.421875 -16.53125 L 14.84375 -16.53125 C 15.238281 -16.53125 15.566406 -16.398438 15.828125 -16.140625 C 16.097656 -15.878906 16.234375 -15.550781 16.234375 -15.15625 L 16.234375 -14.15625 C 16.234375 -13.769531 16.097656 -13.445312 15.828125 -13.1875 C 15.554688 -12.925781 15.226562 -12.796875 14.84375 -12.796875 L 7.234375 -12.796875 C 6.859375 -12.796875 6.539062 -12.664062 6.28125 -12.40625 C 6.019531 -12.144531 5.890625 -11.820312 5.890625 -11.4375 L 5.890625 -5.109375 C 5.890625 -4.722656 6.019531 -4.394531 6.28125 -4.125 C 6.539062 -3.863281 6.859375 -3.734375 7.234375 -3.734375 L 14.84375 -3.734375 C 15.238281 -3.734375 15.566406 -3.601562 15.828125 -3.34375 C 16.097656 -3.082031 16.234375 -2.753906 16.234375 -2.359375 L 16.234375 -1.390625 C 16.234375 -1.003906 16.097656 -0.675781 15.828125 -0.40625 C 15.566406 -0.132812 15.238281 0 14.84375 0 Z M 6.421875 0 "/></g></g></g><g fill="#ffffff" fill-opacity="1"><g transform="translate(107.435711, 20.249999)"><g><path d="M 6.421875 0 C 5.453125 0 4.582031 -0.210938 3.8125 -0.640625 C 3.050781 -1.078125 2.453125 -1.675781 2.015625 -2.4375 C 1.578125 -3.207031 1.359375 -4.082031 1.359375 -5.0625 L 1.359375 -11.46875 C 1.359375 -12.445312 1.578125 -13.316406 2.015625 -14.078125 C 2.453125 -14.847656 3.050781 -15.445312 3.8125 -15.875 C 4.582031 -16.3125 5.453125 -16.53125 6.421875 -16.53125 L 8.0625 -16.53125 C 9.039062 -16.53125 9.910156 -16.3125 10.671875 -15.875 C 11.441406 -15.445312 12.039062 -14.847656 12.46875 -14.078125 C 12.90625 -13.316406 13.125 -12.445312 13.125 -11.46875 L 13.125 -5.0625 C 13.125 -4.082031 12.90625 -3.207031 12.46875 -2.4375 C 12.039062 -1.675781 11.441406 -1.078125 10.671875 -0.640625 C 9.910156 -0.210938 9.039062 0 8.0625 0 Z M 7.234375 -3.734375 C 7.617188 -3.734375 7.941406 -3.863281 8.203125 -4.125 C 8.460938 -4.394531 8.59375 -4.722656 8.59375 -5.109375 L 8.59375 -11.4375 C 8.59375 -11.820312 8.460938 -12.144531 8.203125 -12.40625 C 7.941406 -12.664062 7.617188 -12.796875 7.234375 -12.796875 C 6.859375 -12.796875 6.539062 -12.664062 6.28125 -12.40625 C 6.019531 -12.144531 5.890625 -11.820312 5.890625 -11.4375 L 5.890625 -5.109375 C 5.890625 -4.722656 6.019531 -4.394531 6.28125 -4.125 C 6.539062 -3.863281 6.859375 -3.734375 7.234375 -3.734375 Z M 7.234375 -3.734375 "/></g></g></g><g fill="#ffffff" fill-opacity="1"><g transform="translate(121.264864, 20.249999)"><g><path d="M 2.75 0 C 2.363281 0 2.035156 -0.132812 1.765625 -0.40625 C 1.492188 -0.675781 1.359375 -1.003906 1.359375 -1.390625 L 1.359375 -15.15625 C 1.359375 -15.550781 1.492188 -15.878906 1.765625 -16.140625 C 2.035156 -16.398438 2.363281 -16.53125 2.75 -16.53125 L 11.125 -16.53125 C 11.519531 -16.53125 11.847656 -16.390625 12.109375 -16.109375 C 12.367188 -15.835938 12.5 -15.507812 12.5 -15.125 L 12.5 -5.109375 C 12.5 -4.722656 12.628906 -4.394531 12.890625 -4.125 C 13.160156 -3.863281 13.476562 -3.734375 13.84375 -3.734375 C 14.226562 -3.734375 14.550781 -3.863281 14.8125 -4.125 C 15.082031 -4.394531 15.21875 -4.722656 15.21875 -5.109375 L 15.21875 -15.15625 C 15.21875 -15.550781 15.347656 -15.878906 15.609375 -16.140625 C 15.878906 -16.398438 16.207031 -16.53125 16.59375 -16.53125 L 18.359375 -16.53125 C 18.753906 -16.53125 19.082031 -16.398438 19.34375 -16.140625 C 19.601562 -15.878906 19.734375 -15.550781 19.734375 -15.15625 L 19.734375 -1.390625 C 19.734375 -1.003906 19.601562 -0.675781 19.34375 -0.40625 C 19.082031 -0.132812 18.753906 0 18.359375 0 L 9.984375 0 C 9.597656 0 9.269531 -0.132812 9 -0.40625 C 8.726562 -0.6875 8.59375 -1.019531 8.59375 -1.40625 L 8.59375 -11.453125 C 8.59375 -11.828125 8.460938 -12.144531 8.203125 -12.40625 C 7.941406 -12.664062 7.617188 -12.796875 7.234375 -12.796875 C 6.859375 -12.796875 6.539062 -12.664062 6.28125 -12.40625 C 6.019531 -12.144531 5.890625 -11.828125 5.890625 -11.453125 L 5.890625 -1.390625 C 5.890625 -1.003906 5.757812 -0.675781 5.5 -0.40625 C 5.238281 -0.132812 4.90625 0 4.5 0 Z M 2.75 0 "/></g></g></g><g fill="#f7e135" fill-opacity="1"><g transform="translate(3.520411, 41.249997)"><g><path d="M 2.75 0 C 2.363281 0 2.035156 -0.132812 1.765625 -0.40625 C 1.492188 -0.675781 1.359375 -1.003906 1.359375 -1.390625 L 1.359375 -5.234375 C 1.359375 -6.171875 1.566406 -7.003906 1.984375 -7.734375 C 2.410156 -8.460938 2.988281 -9.035156 3.71875 -9.453125 C 4.445312 -9.878906 5.28125 -10.09375 6.21875 -10.09375 L 10.328125 -10.09375 C 10.722656 -10.09375 11.050781 -10.222656 11.3125 -10.484375 C 11.570312 -10.742188 11.703125 -11.0625 11.703125 -11.4375 C 11.703125 -11.820312 11.570312 -12.144531 11.3125 -12.40625 C 11.050781 -12.664062 10.722656 -12.796875 10.328125 -12.796875 L 2.75 -12.796875 C 2.363281 -12.796875 2.035156 -12.929688 1.765625 -13.203125 C 1.492188 -13.472656 1.359375 -13.800781 1.359375 -14.1875 L 1.359375 -15.15625 C 1.359375 -15.550781 1.492188 -15.878906 1.765625 -16.140625 C 2.035156 -16.398438 2.363281 -16.53125 2.75 -16.53125 L 11.375 -16.53125 C 12.3125 -16.53125 13.144531 -16.320312 13.875 -15.90625 C 14.601562 -15.488281 15.175781 -14.910156 15.59375 -14.171875 C 16.019531 -13.441406 16.234375 -12.609375 16.234375 -11.671875 L 16.234375 -11.25 C 16.234375 -10.3125 16.019531 -9.484375 15.59375 -8.765625 C 15.175781 -8.046875 14.601562 -7.484375 13.875 -7.078125 C 13.144531 -6.671875 12.3125 -6.46875 11.375 -6.46875 L 7.234375 -6.46875 C 6.859375 -6.46875 6.539062 -6.332031 6.28125 -6.0625 C 6.019531 -5.800781 5.890625 -5.484375 5.890625 -5.109375 C 5.890625 -4.722656 6.019531 -4.394531 6.28125 -4.125 C 6.539062 -3.863281 6.859375 -3.734375 7.234375 -3.734375 L 14.84375 -3.734375 C 15.238281 -3.734375 15.566406 -3.601562 15.828125 -3.34375 C 16.097656 -3.082031 16.234375 -2.753906 16.234375 -2.359375 L 16.234375 -1.390625 C 16.234375 -1.003906 16.097656 -0.675781 15.828125 -0.40625 C 15.566406 -0.132812 15.238281 0 14.84375 0 Z M 2.75 0 "/></g></g></g><g fill="#f7e135" fill-opacity="1"><g transform="translate(20.45037, 41.249997)"><g><path d="M 6.421875 0 C 5.453125 0 4.582031 -0.210938 3.8125 -0.640625 C 3.050781 -1.078125 2.453125 -1.675781 2.015625 -2.4375 C 1.578125 -3.207031 1.359375 -4.082031 1.359375 -5.0625 L 1.359375 -11.46875 C 1.359375 -12.445312 1.578125 -13.316406 2.015625 -14.078125 C 2.453125 -14.847656 3.050781 -15.445312 3.8125 -15.875 C 4.582031 -16.3125 5.453125 -16.53125 6.421875 -16.53125 L 8.0625 -16.53125 C 9.039062 -16.53125 9.910156 -16.3125 10.671875 -15.875 C 11.441406 -15.445312 12.039062 -14.847656 12.46875 -14.078125 C 12.90625 -13.316406 13.125 -12.445312 13.125 -11.46875 L 13.125 -5.0625 C 13.125 -4.082031 12.90625 -3.207031 12.46875 -2.4375 C 12.039062 -1.675781 11.441406 -1.078125 10.671875 -0.640625 C 9.910156 -0.210938 9.039062 0 8.0625 0 Z M 7.234375 -3.734375 C 7.617188 -3.734375 7.941406 -3.863281 8.203125 -4.125 C 8.460938 -4.394531 8.59375 -4.722656 8.59375 -5.109375 L 8.59375 -11.4375 C 8.59375 -11.820312 8.460938 -12.144531 8.203125 -12.40625 C 7.941406 -12.664062 7.617188 -12.796875 7.234375 -12.796875 C 6.859375 -12.796875 6.539062 -12.664062 6.28125 -12.40625 C 6.019531 -12.144531 5.890625 -11.820312 5.890625 -11.4375 L 5.890625 -5.109375 C 5.890625 -4.722656 6.019531 -4.394531 6.28125 -4.125 C 6.539062 -3.863281 6.859375 -3.734375 7.234375 -3.734375 Z M 7.234375 -3.734375 "/></g></g></g><g fill="#f7e135" fill-opacity="1"><g transform="translate(34.27953, 41.249997)"><g><path d="M 2.75 0 C 2.363281 0 2.035156 -0.132812 1.765625 -0.40625 C 1.492188 -0.675781 1.359375 -1.003906 1.359375 -1.390625 L 1.359375 -5.234375 C 1.359375 -6.171875 1.566406 -7.003906 1.984375 -7.734375 C 2.410156 -8.460938 2.988281 -9.035156 3.71875 -9.453125 C 4.445312 -9.878906 5.28125 -10.09375 6.21875 -10.09375 L 10.328125 -10.09375 C 10.722656 -10.09375 11.050781 -10.222656 11.3125 -10.484375 C 11.570312 -10.742188 11.703125 -11.0625 11.703125 -11.4375 C 11.703125 -11.820312 11.570312 -12.144531 11.3125 -12.40625 C 11.050781 -12.664062 10.722656 -12.796875 10.328125 -12.796875 L 2.75 -12.796875 C 2.363281 -12.796875 2.035156 -12.929688 1.765625 -13.203125 C 1.492188 -13.472656 1.359375 -13.800781 1.359375 -14.1875 L 1.359375 -15.15625 C 1.359375 -15.550781 1.492188 -15.878906 1.765625 -16.140625 C 2.035156 -16.398438 2.363281 -16.53125 2.75 -16.53125 L 11.375 -16.53125 C 12.3125 -16.53125 13.144531 -16.320312 13.875 -15.90625 C 14.601562 -15.488281 15.175781 -14.910156 15.59375 -14.171875 C 16.019531 -13.441406 16.234375 -12.609375 16.234375 -11.671875 L 16.234375 -11.25 C 16.234375 -10.3125 16.019531 -9.484375 15.59375 -8.765625 C 15.175781 -8.046875 14.601562 -7.484375 13.875 -7.078125 C 13.144531 -6.671875 12.3125 -6.46875 11.375 -6.46875 L 7.234375 -6.46875 C 6.859375 -6.46875 6.539062 -6.332031 6.28125 -6.0625 C 6.019531 -5.800781 5.890625 -5.484375 5.890625 -5.109375 C 5.890625 -4.722656 6.019531 -4.394531 6.28125 -4.125 C 6.539062 -3.863281 6.859375 -3.734375 7.234375 -3.734375 L 14.84375 -3.734375 C 15.238281 -3.734375 15.566406 -3.601562 15.828125 -3.34375 C 16.097656 -3.082031 16.234375 -2.753906 16.234375 -2.359375 L 16.234375 -1.390625 C 16.234375 -1.003906 16.097656 -0.675781 15.828125 -0.40625 C 15.566406 -0.132812 15.238281 0 14.84375 0 Z M 2.75 0 "/></g></g></g><g fill="#f7e135" fill-opacity="1"><g transform="translate(51.209489, 41.249997)"><g><path d="M 9.984375 0 C 9.597656 0 9.269531 -0.132812 9 -0.40625 C 8.726562 -0.675781 8.59375 -1.003906 8.59375 -1.390625 L 8.59375 -2.375 C 8.59375 -2.75 8.457031 -3.066406 8.1875 -3.328125 C 7.925781 -3.597656 7.601562 -3.734375 7.21875 -3.734375 L 2.75 -3.734375 C 2.363281 -3.734375 2.035156 -3.867188 1.765625 -4.140625 C 1.492188 -4.410156 1.359375 -4.738281 1.359375 -5.125 L 1.359375 -14.3125 C 1.359375 -14.707031 1.488281 -15.035156 1.75 -15.296875 C 2.019531 -15.554688 2.351562 -15.6875 2.75 -15.6875 L 4.5 -15.6875 C 4.90625 -15.6875 5.238281 -15.554688 5.5 -15.296875 C 5.757812 -15.035156 5.890625 -14.707031 5.890625 -14.3125 L 5.890625 -9.46875 C 5.890625 -9.082031 6.019531 -8.757812 6.28125 -8.5 C 6.539062 -8.238281 6.859375 -8.109375 7.234375 -8.109375 C 7.617188 -8.109375 7.941406 -8.242188 8.203125 -8.515625 C 8.460938 -8.796875 8.59375 -9.117188 8.59375 -9.484375 L 8.59375 -14.3125 C 8.59375 -14.707031 8.726562 -15.035156 9 -15.296875 C 9.269531 -15.554688 9.597656 -15.6875 9.984375 -15.6875 L 11.734375 -15.6875 C 12.140625 -15.6875 12.472656 -15.554688 12.734375 -15.296875 C 12.992188 -15.035156 13.125 -14.707031 13.125 -14.3125 L 13.125 -1.390625 C 13.125 -1.003906 12.992188 -0.675781 12.734375 -0.40625 C 12.472656 -0.132812 12.140625 0 11.734375 0 Z M 9.984375 0 "/></g></g></g></svg>