<svg xmlns="http://www.w3.org/2000/svg" xmlns:xlink="http://www.w3.org/1999/xlink" width="40" zoomAndPan="magnify" viewBox="0 0 30 30.000001" height="40" preserveAspectRatio="xMidYMid meet" version="1.0"><defs><g/></defs><g fill="#ffffff" fill-opacity="1"><g transform="translate(2.429383, 20.346386)"><g><path d="M 5 0 C 4.238281 0 3.5625 -0.164062 2.96875 -0.5 C 2.375 -0.84375 1.90625 -1.3125 1.5625 -1.90625 C 1.226562 -2.5 1.0625 -3.175781 1.0625 -3.9375 L 1.0625 -8.9375 C 1.0625 -9.695312 1.226562 -10.375 1.5625 -10.96875 C 1.90625 -11.5625 2.375 -12.023438 2.96875 -12.359375 C 3.5625 -12.703125 4.238281 -12.875 5 -12.875 L 11.5625 -12.875 C 11.863281 -12.875 12.117188 -12.769531 12.328125 -12.5625 C 12.535156 -12.363281 12.640625 -12.109375 12.640625 -11.796875 L 12.640625 -11.03125 C 12.640625 -10.726562 12.53125 -10.472656 12.3125 -10.265625 C 12.101562 -10.066406 11.851562 -9.96875 11.5625 -9.96875 L 5.625 -9.96875 C 5.34375 -9.96875 5.097656 -9.863281 4.890625 -9.65625 C 4.691406 -9.445312 4.59375 -9.195312 4.59375 -8.90625 L 4.59375 -3.96875 C 4.59375 -3.675781 4.691406 -3.425781 4.890625 -3.21875 C 5.097656 -3.007812 5.34375 -2.90625 5.625 -2.90625 L 11.5625 -2.90625 C 11.863281 -2.90625 12.117188 -2.800781 12.328125 -2.59375 C 12.535156 -2.394531 12.640625 -2.140625 12.640625 -1.828125 L 12.640625 -1.078125 C 12.640625 -0.773438 12.535156 -0.519531 12.328125 -0.3125 C 12.117188 -0.101562 11.863281 0 11.5625 0 Z M 5 0 "/></g></g></g><g fill="#f7e135" fill-opacity="1"><g transform="translate(15.622481, 20.346386)"><g><path d="M 2.140625 0 C 1.835938 0 1.582031 -0.101562 1.375 -0.3125 C 1.164062 -0.519531 1.0625 -0.773438 1.0625 -1.078125 L 1.0625 -11.796875 C 1.0625 -12.109375 1.164062 -12.363281 1.375 -12.5625 C 1.582031 -12.769531 1.835938 -12.875 2.140625 -12.875 L 3.515625 -12.875 C 3.816406 -12.875 4.070312 -12.769531 4.28125 -12.5625 C 4.488281 -12.363281 4.59375 -12.109375 4.59375 -11.796875 L 4.59375 -8.921875 C 4.59375 -8.617188 4.691406 -8.363281 4.890625 -8.15625 C 5.097656 -7.957031 5.34375 -7.859375 5.625 -7.859375 C 5.925781 -7.859375 6.175781 -7.957031 6.375 -8.15625 C 6.582031 -8.363281 6.6875 -8.617188 6.6875 -8.921875 L 6.6875 -11.796875 C 6.6875 -12.109375 6.789062 -12.363281 7 -12.5625 C 7.21875 -12.769531 7.472656 -12.875 7.765625 -12.875 L 9.140625 -12.875 C 9.453125 -12.875 9.707031 -12.769531 9.90625 -12.5625 C 10.113281 -12.363281 10.21875 -12.109375 10.21875 -11.796875 L 10.21875 -1.078125 C 10.21875 -0.773438 10.113281 -0.519531 9.90625 -0.3125 C 9.707031 -0.101562 9.453125 0 9.140625 0 L 7.765625 0 C 7.472656 0 7.21875 -0.101562 7 -0.3125 C 6.789062 -0.519531 6.6875 -0.773438 6.6875 -1.078125 L 6.6875 -3.953125 C 6.6875 -4.253906 6.582031 -4.507812 6.375 -4.71875 C 6.175781 -4.925781 5.925781 -5.03125 5.625 -5.03125 C 5.34375 -5.03125 5.097656 -4.925781 4.890625 -4.71875 C 4.691406 -4.519531 4.59375 -4.269531 4.59375 -3.96875 L 4.59375 -1.078125 C 4.59375 -0.773438 4.488281 -0.519531 4.28125 -0.3125 C 4.070312 -0.101562 3.816406 0 3.515625 0 Z M 2.140625 0 "/></g></g></g></svg>